<?xml version="1.0" encoding="UTF-8"?>
<svg width="522px" height="125px" viewBox="0 0 522 125" version="1.1" xmlns="http://www.w3.org/2000/svg" xmlns:xlink="http://www.w3.org/1999/xlink">
    <!-- Generator: Sketch 49.1 (51147) - http://www.bohemiancoding.com/sketch -->
    <title>Logotyp_SVART</title>
    <desc>Created with Sketch.</desc>
    <defs>
        <polygon id="path-1" points="0.636 0.515629861 113.981983 0.515629861 113.981983 119.94 0.636 119.94"></polygon>
    </defs>
    <g id="Page-1" stroke="none" stroke-width="1" fill="none" fill-rule="evenodd">
        <g id="Logotyp_SVART">
            <path d="M19.724,25.523 C20.264,24.74 20.821,23.968 21.397,23.209 C27.74,14.842 36.277,7.96 46.621,3.541 C47.264,3.267 47.909,3.008 48.555,2.756 C48.887,2.627 49.22,2.497 49.555,2.373 C49.59,2.359 49.626,2.347 49.662,2.333 C50.097,2.173 50.533,2.019 50.971,1.869 C51.07,1.836 51.166,1.803 51.265,1.771 C51.482,1.697 51.702,1.626 51.923,1.556 C53.416,1.07 54.917,0.644 56.425,0.277 C27.841,3.038 4.01,25.336 0.436,55.021 C0.358,55.664 0.295,56.306 0.237,56.947 C0.112,58.351 0.034,59.745 0,61.133 C0.001,61.183 0.001,61.23 0.002,61.278 C0.017,63.324 0.218,65.307 0.619,67.192 C1.66,72.077 3.969,75.741 7.296,77.788 C8.544,78.553 9.803,79.049 11.076,79.268 C11.188,79.29 11.301,79.305 11.413,79.319 C9.617,73.477 8.723,67.534 8.667,61.653 C8.542,48.709 12.463,36.072 19.724,25.523" id="Fill-1" fill="#161616"></path>
            <g id="Group-5" transform="translate(11.000000, 5.000000)">
                <mask id="mask-2" fill="white">
                    <use xlink:href="#path-1"></use>
                </mask>
                <g id="Clip-3"></g>
                <path d="M88.977,7.488 C88.458,7.099 87.933,6.72 87.407,6.35 C86.255,5.543 85.084,4.775 83.899,4.054 C83.857,4.029 83.816,4.006 83.773,3.98 C81.993,2.971 80.176,2.154 78.344,1.561 C73.593,0.018 69.264,0.186 65.829,2.046 C64.541,2.74 63.482,3.585 62.655,4.578 C62.581,4.664 62.513,4.755 62.444,4.843 C68.4,6.209 73.994,8.408 79.115,11.298 C90.389,17.662 99.371,27.377 104.878,38.939 C105.286,39.799 105.676,40.669 106.045,41.548 C110.12,51.22 111.811,62.055 110.466,73.225 C110.382,73.919 110.285,74.604 110.179,75.292 C110.127,75.643 110.07,75.997 110.012,76.348 C110.004,76.387 109.998,76.423 109.993,76.462 C109.914,76.919 109.83,77.374 109.738,77.831 C109.719,77.93 109.699,78.032 109.678,78.132 C109.632,78.358 109.584,78.581 109.537,78.805 C109.208,80.344 108.827,81.858 108.394,83.348 C120.294,57.212 112.897,25.424 88.977,7.488" id="Fill-2" fill="#161616" mask="url(#mask-2)"></path>
                <path d="M91.596,93.303 C87.436,97.778 82.735,101.524 77.672,104.514 C66.524,111.094 53.622,114.014 40.855,113.003 C39.905,112.926 38.956,112.831 38.01,112.714 C27.595,111.403 17.368,107.452 8.367,100.698 C7.808,100.282 7.262,99.852 6.719,99.417 C6.442,99.196 6.164,98.969 5.888,98.745 C5.859,98.719 5.83,98.696 5.8,98.671 C5.443,98.374 5.09,98.075 4.744,97.768 C4.666,97.7 4.589,97.631 4.511,97.565 C4.338,97.413 4.167,97.256 3.998,97.102 C2.829,96.053 1.71,94.964 0.636,93.842 C17.321,117.217 48.548,126.706 76.042,114.958 C76.639,114.704 77.225,114.438 77.812,114.167 C79.088,113.573 80.336,112.944 81.552,112.278 C81.595,112.255 81.638,112.229 81.679,112.206 C83.444,111.169 85.059,110.003 86.49,108.715 C90.202,105.37 92.218,101.538 92.328,97.633 C92.368,96.171 92.168,94.833 91.721,93.618 C91.683,93.51 91.639,93.407 91.596,93.303" id="Fill-4" fill="#161616" mask="url(#mask-2)"></path>
            </g>
            <path d="M91.968,62.2 C93.396,61.856 95.064,62.135 96.516,62.256 C97.697,62.355 99.117,62.239 99.867,61.18 C100.566,60.195 100.46,59.049 100.06,57.986 C99.842,57.408 99.586,56.818 99.225,56.361 C92.713,48.106 86.117,44.465 82.694,42.32 C74.125,36.949 62.505,31.34 52.858,28.221 C52.124,27.986 50.406,27.432 48.932,26.961 C48.535,26.834 48.156,26.714 47.82,26.604 C47.778,26.594 47.737,26.584 47.697,26.572 C46.933,26.382 46.312,26.373 46.235,26.924 C46.149,27.539 47.321,28.33 48.267,28.824 L48.531,29.865 C53.69,34.049 62.82,41.211 64.93,44.018 C65.166,44.334 65.382,44.662 65.588,44.998 C65.873,45.457 65.843,45.477 65.352,45.697 C64.904,45.896 64.46,46.105 64.019,46.322 C62.579,47.027 60.576,48.092 59.093,48.709 C57.63,49.318 56.507,49.228 55.008,48.799 C54.571,48.674 50.737,47.367 46.048,45.773 C45.813,45.695 45.58,45.617 45.345,45.537 C44.729,45.33 44.113,45.123 43.495,44.918 C42.621,44.623 41.749,44.332 40.875,44.037 C39.87,43.701 38.866,43.365 37.86,43.027 C36.85,42.688 35.84,42.349 34.83,42.01 C33.939,41.711 33.049,41.414 32.158,41.115 C31.514,40.899 30.871,40.682 30.227,40.467 C30.161,40.445 30.095,40.423 30.03,40.402 C29.982,40.385 29.935,40.369 29.887,40.353 C29.782,40.324 29.673,40.308 29.559,40.308 C29.304,40.308 29.067,40.385 28.87,40.516 C28.819,40.556 28.768,40.597 28.717,40.639 C28.642,40.701 28.57,40.764 28.494,40.822 C28.472,40.84 28.448,40.859 28.424,40.879 L26.933,42.111 C26.886,42.152 26.839,42.189 26.792,42.228 L26.028,42.858 C25.973,42.908 25.918,42.957 25.865,43.01 C25.8,43.074 25.738,43.143 25.675,43.215 C25.399,43.557 25.235,43.994 25.235,44.467 C25.235,44.924 25.388,45.342 25.644,45.679 C25.674,45.715 25.701,45.75 25.731,45.785 C25.739,45.793 25.746,45.801 25.755,45.81 C25.78,45.839 25.806,45.867 25.831,45.892 C25.842,45.902 25.85,45.914 25.86,45.924 C25.925,45.99 25.995,46.052 26.068,46.111 L43.074,58.251 C43.514,58.562 43.942,58.868 44.351,59.167 C47.189,61.247 49.206,63.015 49.317,63.905 C49.344,64.128 49.579,71.434 49.581,71.655 C49.582,71.817 49.583,71.979 49.581,72.139 C49.581,72.231 49.581,72.323 49.573,72.413 C49.572,72.424 49.572,72.436 49.569,72.446 C49.502,72.782 49.26,72.999 48.943,73.114 C48.61,73.231 48.285,73.288 47.93,73.26 C44.921,73.051 41.913,72.372 39.066,71.428 C37.959,71.061 36.866,70.647 35.792,70.196 C32.176,68.682 28.631,67.02 25.006,65.526 C23.878,65.063 22.757,64.579 21.636,64.1 C21.453,64.022 21.272,63.943 21.089,63.866 C20.744,63.72 20.386,63.552 20.021,63.413 C20.01,63.407 19.997,63.404 19.986,63.4 C19.862,63.354 19.738,63.305 19.613,63.261 C19.073,63.07 18.752,63.243 18.612,63.648 C17.248,62.758 18.484,65.43 20.528,67.633 C20.56,67.667 23.271,70.522 24.43,71.735 C32.802,80.503 42.772,87.014 54.104,91.298 C57.241,92.483 60.452,93.483 63.741,94.153 C68.785,95.178 72.64,95.684 77.652,94.665 C80.844,94.014 85.256,92.489 84.713,88.415 C84.701,88.321 84.686,88.235 84.667,88.149 C84.355,86.674 83.263,86.587 82.383,85.423 C81.635,84.434 81.102,82.012 80.89,80.825 C83.618,80.247 92.29,79.456 93.364,79.512 C94.061,79.548 96.224,80.417 96.772,80.606 C96.891,80.647 97.012,80.686 97.131,80.727 L97.131,79.161 C97.802,79.198 98.499,79.323 99.178,79.6 L99.55,79.776 C99.55,79.774 99.55,79.772 99.55,79.768 C99.969,78.29 99.405,76.872 98.61,76.008 C98.628,75.747 98.628,75.487 98.6,75.239 C98.453,73.913 97.944,72.577 97.075,71.563 C96.22,70.561 95.185,69.719 94.179,68.878 C93.64,68.426 93.09,67.979 92.581,67.495 C91.553,66.512 90.303,65.686 89.233,64.717 C89.556,63.422 90.086,62.654 91.968,62.2" id="Fill-6" fill="#161616"></path>
            <polyline id="Fill-7" fill="#161616" points="163.795 65.122 152.332 46.861 147.875 46.861 147.875 72.501 152.332 72.501 152.332 54.31 163.76 72.501 168.216 72.501 168.216 46.861 163.795 46.861 163.795 65.122"></polyline>
            <path d="M183.354,67.145 C182.978,67.84 182.418,68.393 181.672,68.801 C180.926,69.214 180.131,69.419 179.286,69.419 C178.37,69.419 177.639,69.176 177.094,68.686 C176.548,68.2 176.274,67.546 176.274,66.723 C176.274,65.714 176.673,64.934 177.472,64.383 C178.27,63.83 179.462,63.556 181.046,63.556 L183.354,63.556 L183.354,67.145 Z M187.633,59.505 C187.598,57.475 186.917,55.898 185.59,54.777 C184.263,53.655 182.484,53.094 180.254,53.094 C178.787,53.094 177.457,53.354 176.265,53.871 C175.074,54.386 174.131,55.1 173.439,56.008 C172.746,56.92 172.4,57.897 172.4,58.941 L176.68,58.941 C176.68,58.189 176.991,57.57 177.613,57.085 C178.235,56.597 179.033,56.352 180.008,56.352 C181.135,56.352 181.974,56.648 182.526,57.242 C183.078,57.834 183.354,58.624 183.354,59.61 L183.354,60.861 L180.73,60.861 C177.924,60.861 175.767,61.404 174.258,62.488 C172.75,63.574 171.995,65.135 171.995,67.165 C171.995,68.772 172.6,70.124 173.809,71.215 C175.018,72.307 176.58,72.854 178.494,72.854 C180.466,72.854 182.133,72.143 183.495,70.723 C183.636,71.544 183.8,72.137 183.987,72.501 L188.355,72.501 L188.355,72.202 C187.874,71.18 187.633,69.811 187.633,68.098 L187.633,59.505 Z" id="Fill-8" fill="#161616"></path>
            <path d="M198.064,68.829 C197.775,68.507 197.632,67.981 197.632,67.253 L197.632,56.617 L200.996,56.617 L200.996,53.448 L197.632,53.448 L197.632,48.815 L193.353,48.815 L193.353,53.448 L190.218,53.448 L190.218,56.617 L193.353,56.617 L193.353,67.411 C193.353,71.04 194.996,72.854 198.284,72.854 C199.188,72.854 200.127,72.717 201.102,72.448 L201.102,69.137 C200.597,69.255 200.098,69.313 199.604,69.313 C198.865,69.313 198.351,69.151 198.064,68.829" id="Fill-9" fill="#161616"></path>
            <path d="M216.284,67.13 C215.556,68.622 214.153,69.366 212.075,69.366 C210.067,69.366 209.063,68.159 209.063,65.737 L209.063,53.448 L204.784,53.448 L204.784,65.792 C204.784,68.081 205.315,69.831 206.378,71.04 C207.44,72.249 209.005,72.854 211.071,72.854 C213.384,72.854 215.168,72.114 216.424,70.633 L216.53,72.501 L220.563,72.501 L220.563,53.448 L216.284,53.448 L216.284,67.13" id="Fill-10" fill="#161616"></path>
            <path d="M229.104,55.578 L228.999,53.448 L224.913,53.448 L224.913,72.501 L229.192,72.501 L229.192,59.469 C229.873,57.967 231.193,57.217 233.155,57.217 C233.753,57.217 234.335,57.263 234.898,57.357 L234.916,53.34 C234.517,53.176 234.011,53.094 233.4,53.094 C231.569,53.094 230.137,53.922 229.104,55.578" id="Fill-11" fill="#161616"></path>
            <path d="M249.354,62.649 C248.397,62.136 247.079,61.696 245.401,61.327 C243.722,60.956 242.606,60.592 242.055,60.227 C241.502,59.862 241.227,59.352 241.227,58.695 C241.227,57.967 241.524,57.384 242.117,56.952 C242.708,56.516 243.475,56.299 244.415,56.299 C245.424,56.299 246.234,56.572 246.844,57.118 C247.455,57.664 247.761,58.349 247.761,59.17 L252.039,59.17 C252.039,57.374 251.338,55.913 249.936,54.786 C248.532,53.659 246.692,53.094 244.415,53.094 C242.278,53.094 240.516,53.646 239.132,54.749 C237.746,55.853 237.053,57.227 237.053,58.869 C237.053,60.83 238.122,62.328 240.258,63.361 C241.232,63.83 242.448,64.219 243.903,64.524 C245.36,64.829 246.402,65.18 247.03,65.581 C247.658,65.979 247.972,66.559 247.972,67.323 C247.972,68.016 247.678,68.575 247.091,69.005 C246.504,69.434 245.647,69.647 244.521,69.647 C243.358,69.647 242.425,69.374 241.72,68.829 C241.015,68.284 240.634,67.505 240.576,66.495 L236.419,66.495 C236.419,67.635 236.76,68.698 237.441,69.684 C238.122,70.669 239.073,71.446 240.293,72.008 C241.515,72.571 242.906,72.854 244.467,72.854 C246.768,72.854 248.629,72.321 250.05,71.26 C251.47,70.198 252.18,68.809 252.18,67.094 C252.18,66.073 251.948,65.204 251.484,64.489 C251.021,63.773 250.311,63.158 249.354,62.649" id="Fill-12" fill="#161616"></path>
            <polyline id="Fill-13" fill="#161616" points="271.793 53.448 266.646 53.448 261.381 59.382 260.041 61.055 260.041 45.453 255.761 45.453 255.761 72.501 260.041 72.501 260.041 66.284 261.943 64.329 267.6 72.501 272.55 72.501 264.711 61.39 271.793 53.448"></polyline>
            <path d="M281.87,66.372 L277.836,53.448 L273.224,53.448 L279.914,72.399 L279.299,74.036 C278.98,74.962 278.551,75.622 278.005,76.014 C277.457,76.407 276.645,76.604 275.564,76.604 L274.754,76.551 L274.754,79.878 C275.506,80.091 276.194,80.196 276.816,80.196 C279.598,80.196 281.571,78.594 282.732,75.389 L290.305,53.448 L285.744,53.448 L281.87,66.372" id="Fill-14" fill="#161616"></path>
            <path d="M303.848,67.024 C303.037,68.585 301.759,69.366 300.01,69.366 C298.635,69.366 297.574,68.823 296.828,67.737 C296.085,66.651 295.712,65.139 295.712,63.203 C295.712,60.995 296.086,59.343 296.84,58.244 C297.59,57.148 298.658,56.6 300.045,56.6 C301.792,56.6 303.062,57.364 303.848,58.888 L303.848,67.024 Z M303.848,55.209 C302.604,53.8 300.973,53.094 298.953,53.094 C296.664,53.094 294.836,53.984 293.477,55.763 C292.114,57.541 291.434,59.898 291.434,62.832 C291.434,65.919 292.123,68.362 293.502,70.159 C294.883,71.956 296.686,72.854 298.916,72.854 C301.054,72.854 302.761,72.079 304.041,70.528 L304.252,72.501 L308.127,72.501 L308.127,45.453 L303.848,45.453 L303.848,55.209 Z" id="Fill-15" fill="#161616"></path>
            <path d="M324.36,67.024 C323.549,68.585 322.27,69.366 320.521,69.366 C319.148,69.366 318.087,68.823 317.343,67.737 C316.596,66.651 316.225,65.139 316.225,63.203 C316.225,60.995 316.601,59.343 317.352,58.244 C318.102,57.148 319.172,56.6 320.557,56.6 C322.307,56.6 323.574,57.364 324.36,58.888 L324.36,67.024 Z M324.36,55.209 C323.115,53.8 321.484,53.094 319.464,53.094 C317.176,53.094 315.35,53.984 313.988,55.763 C312.625,57.541 311.943,59.898 311.943,62.832 C311.943,65.919 312.636,68.362 314.014,70.159 C315.393,71.956 317.198,72.854 319.43,72.854 C321.566,72.854 323.273,72.079 324.553,70.528 L324.765,72.501 L328.639,72.501 L328.639,45.453 L324.36,45.453 L324.36,55.209 Z" id="Fill-16" fill="#161616"></path>
            <path d="M345.012,62.649 C344.055,62.136 342.736,61.696 341.06,61.327 C339.381,60.956 338.264,60.592 337.713,60.227 C337.161,59.862 336.885,59.352 336.885,58.695 C336.885,57.967 337.182,57.384 337.773,56.952 C338.365,56.516 339.132,56.299 340.072,56.299 C341.082,56.299 341.891,56.572 342.503,57.118 C343.113,57.664 343.42,58.349 343.42,59.17 L347.696,59.17 C347.696,57.374 346.995,55.913 345.592,54.786 C344.189,53.659 342.35,53.094 340.072,53.094 C337.936,53.094 336.174,53.646 334.79,54.749 C333.404,55.853 332.712,57.227 332.712,58.869 C332.712,60.83 333.779,62.328 335.916,63.361 C336.891,63.83 338.105,64.219 339.561,64.524 C341.017,64.829 342.06,65.18 342.687,65.581 C343.316,65.979 343.629,66.559 343.629,67.323 C343.629,68.016 343.336,68.575 342.748,69.005 C342.162,69.434 341.305,69.647 340.178,69.647 C339.017,69.647 338.082,69.374 337.379,68.829 C336.674,68.284 336.293,67.505 336.233,66.495 L332.077,66.495 C332.077,67.635 332.416,68.698 333.1,69.684 C333.779,70.669 334.73,71.446 335.951,72.008 C337.172,72.571 338.564,72.854 340.125,72.854 C342.427,72.854 344.288,72.321 345.707,71.26 C347.127,70.198 347.838,68.809 347.838,67.094 C347.838,66.073 347.605,65.204 347.142,64.489 C346.68,63.773 345.969,63.158 345.012,62.649" id="Fill-17" fill="#161616"></path>
            <path d="M354.829,46.807 C353.654,47.958 353.068,49.59 353.068,51.703 L353.068,53.448 L350.162,53.448 L350.162,56.617 L353.068,56.617 L353.068,72.501 L357.347,72.501 L357.347,56.617 L361.221,56.617 L361.221,53.448 L357.347,53.448 L357.347,51.757 C357.347,49.654 358.367,48.604 360.412,48.604 C361.033,48.604 361.579,48.651 362.049,48.745 L362.156,45.399 C361.311,45.188 360.51,45.082 359.759,45.082 C357.647,45.082 356.004,45.657 354.829,46.807" id="Fill-18" fill="#161616"></path>
            <path d="M368.285,50.524 C368.975,50.524 369.522,50.324 369.922,49.924 C370.32,49.526 370.521,49.034 370.521,48.446 C370.521,47.86 370.32,47.366 369.922,46.965 C369.522,46.566 368.975,46.368 368.285,46.368 C367.591,46.368 367.049,46.566 366.654,46.965 C366.26,47.366 366.065,47.86 366.065,48.446 C366.065,49.034 366.26,49.526 366.654,49.924 C367.049,50.324 367.591,50.524 368.285,50.524" id="Fill-19" fill="#161616"></path>
            <path d="M375.796,67.747 C374.99,68.872 373.866,69.436 372.42,69.436 C370.977,69.436 369.851,68.882 369.042,67.772 C368.23,66.661 367.824,65.128 367.824,63.167 C367.824,60.961 368.236,59.303 369.059,58.194 C369.881,57.085 370.99,56.53 372.387,56.53 C373.807,56.53 374.932,57.092 375.759,58.218 C376.586,59.346 377,60.872 377,62.798 C377,64.969 376.598,66.62 375.796,67.747 Z M378.647,55.578 C377.045,53.922 374.959,53.094 372.387,53.094 C370.648,53.094 369.112,53.497 367.772,54.301 C366.434,55.106 365.395,56.256 364.657,57.752 C363.915,59.249 363.548,60.931 363.548,62.798 L363.548,63.009 C363.548,65.991 364.354,68.378 365.967,70.167 C367.582,71.958 369.732,72.854 372.42,72.854 C374.184,72.854 375.734,72.448 377.08,71.637 C378.423,70.829 379.457,69.684 380.18,68.204 C380.9,66.723 381.262,65.046 381.262,63.167 L381.245,62.164 C381.115,59.428 380.25,57.234 378.647,55.578 Z" id="Fill-20" fill="#161616"></path>
            <path d="M376.332,50.542 C377.023,50.542 377.569,50.341 377.969,49.943 C378.367,49.543 378.568,49.05 378.568,48.464 C378.568,47.877 378.367,47.383 377.969,46.985 C377.569,46.586 377.023,46.384 376.332,46.384 C375.64,46.384 375.092,46.586 374.693,46.985 C374.295,47.383 374.094,47.877 374.094,48.464 C374.094,49.05 374.295,49.543 374.693,49.943 C375.092,50.341 375.64,50.542 376.332,50.542" id="Fill-21" fill="#161616"></path>
            <path d="M388.908,55.578 L388.803,53.448 L384.717,53.448 L384.717,72.501 L388.998,72.501 L388.998,59.469 C389.678,57.967 390.998,57.217 392.959,57.217 C393.559,57.217 394.139,57.263 394.703,57.357 L394.72,53.34 C394.32,53.176 393.816,53.094 393.205,53.094 C391.374,53.094 389.941,53.922 388.908,55.578" id="Fill-22" fill="#161616"></path>
            <path d="M409.044,61.196 L400.891,61.196 C401.09,59.727 401.55,58.584 402.271,57.76 C402.995,56.938 403.941,56.53 405.115,56.53 C406.301,56.53 407.229,56.896 407.898,57.63 C408.566,58.364 408.949,59.446 409.044,60.877 L409.044,61.196 Z M405.135,53.094 C403.502,53.094 402.023,53.511 400.696,54.343 C399.369,55.178 398.338,56.344 397.605,57.841 C396.872,59.336 396.504,61.038 396.504,62.939 L396.504,63.466 C396.504,66.307 397.348,68.583 399.031,70.292 C400.717,72.001 402.915,72.854 405.628,72.854 C407.213,72.854 408.639,72.54 409.916,71.911 C411.189,71.284 412.207,70.399 412.971,69.26 L410.664,67.059 C409.432,68.645 407.834,69.436 405.873,69.436 C404.476,69.436 403.316,68.979 402.396,68.061 C401.474,67.145 400.948,65.903 400.82,64.329 L413.269,64.329 L413.269,62.604 C413.269,59.575 412.563,57.234 411.148,55.578 C409.732,53.922 407.729,53.094 405.135,53.094 Z" id="Fill-23" fill="#161616"></path>
            <path d="M426.385,53.094 C424.096,53.094 422.246,53.945 420.838,55.648 L420.715,53.448 L416.682,53.448 L416.682,72.501 L420.961,72.501 L420.961,58.941 C421.808,57.381 423.092,56.6 424.817,56.6 C426.005,56.6 426.858,56.889 427.379,57.47 C427.902,58.052 428.162,58.946 428.162,60.156 L428.162,72.501 L432.443,72.501 L432.443,59.908 C432.373,55.366 430.354,53.094 426.385,53.094" id="Fill-24" fill="#161616"></path>
            <path d="M439.223,46.174 C438.447,46.174 437.854,46.394 437.436,46.831 C437.019,47.269 436.811,47.819 436.811,48.48 C436.811,49.132 437.019,49.674 437.436,50.104 C437.854,50.537 438.447,50.754 439.223,50.754 C439.998,50.754 440.596,50.537 441.02,50.104 C441.442,49.674 441.654,49.132 441.654,48.48 C441.654,47.819 441.442,47.269 441.02,46.831 C440.596,46.394 439.998,46.174 439.223,46.174" id="Fill-25" fill="#161616"></path>
            <polygon id="Fill-26" fill="#161616" points="437.074 72.501 441.355 72.501 441.355 53.448 437.074 53.448"></polygon>
            <path d="M455.807,53.094 C453.518,53.094 451.67,53.945 450.262,55.648 L450.139,53.448 L446.105,53.448 L446.105,72.501 L450.384,72.501 L450.384,58.941 C451.23,57.381 452.516,56.6 454.241,56.6 C455.425,56.6 456.282,56.889 456.804,57.47 C457.325,58.052 457.586,58.946 457.586,60.156 L457.586,72.501 L461.865,72.501 L461.865,59.908 C461.795,55.366 459.775,53.094 455.807,53.094" id="Fill-27" fill="#161616"></path>
            <path d="M477.688,67.145 C476.854,68.628 475.575,69.366 473.848,69.366 C472.464,69.366 471.381,68.817 470.602,67.719 C469.82,66.622 469.428,65.118 469.428,63.203 C469.428,61.031 469.82,59.388 470.602,58.273 C471.381,57.157 472.475,56.6 473.883,56.6 C475.611,56.6 476.878,57.321 477.688,58.765 L477.688,67.145 Z M477.917,55.366 C476.672,53.851 474.963,53.094 472.792,53.094 C470.491,53.094 468.645,53.979 467.254,55.747 C465.861,57.513 465.166,59.874 465.166,62.832 C465.166,65.967 465.873,68.421 467.289,70.194 C468.703,71.967 470.527,72.854 472.757,72.854 C474.811,72.854 476.455,72.167 477.688,70.794 L477.688,72.079 C477.688,73.569 477.277,74.698 476.455,75.467 C475.633,76.237 474.512,76.622 473.091,76.622 C471.165,76.622 469.545,75.84 468.231,74.28 L466.205,76.85 C466.897,77.79 467.912,78.551 469.244,79.132 C470.574,79.712 471.94,80.003 473.338,80.003 C475.98,80.003 478.078,79.282 479.633,77.837 C481.188,76.393 481.967,74.421 481.967,71.921 L481.967,53.448 L478.109,53.448 L477.917,55.366 Z" id="Fill-28" fill="#161616"></path>
            <path d="M498.014,61.196 L489.859,61.196 C490.059,59.727 490.52,58.584 491.243,57.76 C491.963,56.938 492.913,56.53 494.086,56.53 C495.271,56.53 496.199,56.896 496.869,57.63 C497.539,58.364 497.919,59.446 498.014,60.877 L498.014,61.196 Z M494.104,53.094 C492.471,53.094 490.992,53.511 489.666,54.343 C488.34,55.178 487.31,56.344 486.576,57.841 C485.842,59.336 485.475,61.038 485.475,62.939 L485.475,63.466 C485.475,66.307 486.316,68.583 488.002,70.292 C489.686,72.001 491.885,72.854 494.596,72.854 C496.182,72.854 497.611,72.54 498.884,71.911 C500.158,71.284 501.178,70.399 501.939,69.26 L499.633,67.059 C498.399,68.645 496.804,69.436 494.843,69.436 C493.447,69.436 492.287,68.979 491.365,68.061 C490.443,67.145 489.918,65.903 489.79,64.329 L502.24,64.329 L502.24,62.604 C502.24,59.575 501.533,57.234 500.117,55.578 C498.703,53.922 496.698,53.094 494.104,53.094 Z" id="Fill-29" fill="#161616"></path>
            <path d="M515.201,53.094 C512.913,53.094 511.063,53.945 509.654,55.648 L509.53,53.448 L505.498,53.448 L505.498,72.501 L509.777,72.501 L509.777,58.941 C510.623,57.381 511.907,56.6 513.635,56.6 C514.82,56.6 515.674,56.889 516.197,57.47 C516.719,58.052 516.98,58.946 516.98,60.156 L516.98,72.501 L521.259,72.501 L521.259,59.908 C521.188,55.366 519.17,53.094 515.201,53.094" id="Fill-30" fill="#161616"></path>
        </g>
    </g>
</svg>