<?xml version="1.0" encoding="UTF-8"?>
<svg width="19px" height="20px" viewBox="0 0 19 20" version="1.1" xmlns="http://www.w3.org/2000/svg" xmlns:xlink="http://www.w3.org/1999/xlink">
    <!-- Generator: Sketch 51.1 (57501) - http://www.bohemiancoding.com/sketch -->
    <title>baseline-pan_tool-24px</title>
    <desc>Created with Sketch.</desc>
    <defs>
        <polygon id="path-1" points="0 0 19.2876712 0 19.2876712 19.2876712 0 19.2876712"></polygon>
    </defs>
    <g id="Welcome" stroke="none" stroke-width="1" fill="none" fill-rule="evenodd">
        <g id="Desktop" transform="translate(-511.000000, -184.000000)">
            <g id="HelpingHand" transform="translate(506.000000, 178.000000)">
                <g id="baseline-pan_tool-24px" transform="translate(4.821918, 6.136986)">
                    <mask id="mask-2" fill="white">
                        <use xlink:href="#path-1"></use>
                    </mask>
                    <g id="a"></g>
                    <path d="M18.4840183,4.42009132 L18.4840183,16.0730594 C18.4840183,17.8410959 17.0374429,19.2876712 15.2694064,19.2876712 L9.40273973,19.2876712 C8.53479452,19.2876712 7.71506849,18.9421005 7.11232877,18.3313242 L0.803652968,11.9181735 C0.803652968,11.9181735 1.81625571,10.9296804 1.84840183,10.9136073 C2.02520548,10.7609132 2.24219178,10.6805479 2.48328767,10.6805479 C2.66009132,10.6805479 2.82082192,10.7287671 2.96547945,10.8091324 C2.99762557,10.8171689 6.42922374,12.7861187 6.42922374,12.7861187 L6.42922374,3.21461187 C6.42922374,2.54757991 6.96767123,2.00913242 7.6347032,2.00913242 C8.30173516,2.00913242 8.84018265,2.54757991 8.84018265,3.21461187 L8.84018265,8.84018265 L9.64383562,8.84018265 L9.64383562,1.20547945 C9.64383562,0.538447489 10.1822831,0 10.8493151,0 C11.516347,0 12.0547945,0.538447489 12.0547945,1.20547945 L12.0547945,8.84018265 L12.8584475,8.84018265 L12.8584475,2.00913242 C12.8584475,1.34210046 13.396895,0.803652968 14.0639269,0.803652968 C14.7309589,0.803652968 15.2694064,1.34210046 15.2694064,2.00913242 L15.2694064,8.84018265 L16.0730594,8.84018265 L16.0730594,4.42009132 C16.0730594,3.75305936 16.6115068,3.21461187 17.2785388,3.21461187 C17.9455708,3.21461187 18.4840183,3.75305936 18.4840183,4.42009132 Z" id="Shape" fill="#FFFFFF" fill-rule="nonzero" mask="url(#mask-2)"></path>
                </g>
            </g>
        </g>
    </g>
</svg>